<svg id="Capa_1" enable-background="new 0 0 512 512" height="512" viewBox="0 0 512 512" width="512" xmlns="http://www.w3.org/2000/svg"><g><path d="m256 512c-48.576 0-91.968-18.655-122.181-52.529-2.758-3.091-2.486-7.832.604-10.589 3.091-2.757 7.833-2.486 10.589.605 27.33 30.639 66.746 47.513 110.988 47.513 19.81 0 38.67-3.333 56.06-9.905 3.871-1.464 8.202.489 9.667 4.364s-.489 8.203-4.364 9.667c-19.091 7.215-39.735 10.874-61.363 10.874zm35.5-38.888c-72.154 0-100.772-35.712-114.526-52.875-1.843-2.3-4.063-5.071-5.364-6.324-1.236.364-3.364 1.259-5.144 2.008-8.974 3.777-23.994 10.098-50.74 10.098-4.143 0-7.5-3.358-7.5-7.5s3.357-7.5 7.5-7.5c23.719 0 36.479-5.37 44.922-8.924 5.775-2.43 10.336-4.352 15.371-2.793 4.524 1.401 7.761 5.44 12.661 11.555 13.234 16.515 37.868 47.254 102.82 47.254 48.335 0 75.844-12.969 83.123-16.944 3.638-1.987 8.191-.647 10.178 2.988 1.984 3.635.646 8.192-2.988 10.177-10.341 5.647-39.842 18.78-90.313 18.78zm15-44.067c-4.143 0-7.5-3.358-7.5-7.5s3.357-7.5 7.5-7.5c40.417 0 73.225-14.144 97.512-42.04 2.719-3.125 7.456-3.451 10.581-.732 3.124 2.72 3.451 7.458.731 10.582-27.261 31.313-63.876 47.19-108.824 47.19zm-31.954-3.623c-.584 0-1.177-.068-1.77-.212-29.24-7.072-53.088-24.189-68.965-49.5-8.485-13.528-14.696-29.388-18.477-46.961-16.794 37.637-50.82 55.229-83.088 55.229-4.143 0-7.5-3.358-7.5-7.5s3.357-7.5 7.5-7.5c29.25 0 78.753-20.023 78.753-95.071v-58.171c0-38.144 6.97-69.9 20.154-91.836 13.332-22.178 32.297-33.9 54.847-33.9 17.727 0 33.65 7.515 46.053 21.733 12.332 14.139 20.867 34.227 25.368 59.706.721 4.079-2.002 7.97-6.081 8.69-4.086.72-7.97-2.003-8.69-6.081-7.753-43.881-28.4-69.048-56.65-69.048-37.01 0-60 42.432-60 110.736v70.324c0 66.823 29.27 112.227 80.304 124.571 4.025.974 6.5 5.027 5.526 9.053-.831 3.433-3.901 5.738-7.284 5.738zm34.349-41.444c-26.635 0-48.61-11.028-63.554-31.892-12.472-17.414-19.341-40.862-19.341-66.026v-70.324c0-14.529.918-35.388 5.289-52.251 4.9-18.902 13.214-28.485 24.711-28.485 3.535 0 8.817 1.158 13.91 6.677 13.086 14.183 19.543 52.73 16.065 95.921-.332 4.129-3.947 7.205-8.077 6.874-4.129-.332-7.207-3.949-6.874-8.078 3.433-42.648-3.691-75.391-12.139-84.544-.637-.69-1.859-1.849-2.886-1.849-6.229 0-15 20.395-15 65.736 0 44.375 13.603 71.941 35.5 71.941 12.179 0 21.224-4.752 27.651-14.527 7.864-11.959 11.85-31.276 11.85-57.415 0-3.236-.053-6.479-.157-9.637-.137-4.14 3.109-7.607 7.249-7.744 4.122-.138 7.606 3.108 7.743 7.249.109 3.322.165 6.731.165 10.131 0 29.529-4.683 51.004-14.315 65.655-9.287 14.124-22.808 21.286-40.185 21.286-12.678 0-25.808-6.161-35.5-21.058v4.44c0 41.272 20.993 82.918 67.895 82.918 28.072 0 51.939-13.344 69.019-38.589 18.374-27.158 28.086-66.804 28.086-114.651 0-57.574-13.653-106.81-39.485-142.385-6.879-9.475-14.604-17.996-22.961-25.327-3.113-2.731-3.423-7.47-.691-10.584 2.731-3.112 7.471-3.423 10.584-.692 9.192 8.065 17.674 17.415 25.207 27.79 27.702 38.153 42.346 90.437 42.346 151.198 0 50.855-10.603 93.408-30.663 123.058-19.998 29.559-48.161 45.184-81.442 45.184zm-10.535-41.502c-4.143 0-7.5-3.358-7.5-7.5s3.357-7.5 7.5-7.5c43.038 0 62.64-57.923 62.64-111.74 0-47.185-10.891-90.317-29.133-115.377-18.944-26.026-45.888-40.359-75.867-40.359s-56.923 14.333-75.867 40.358c-12.126 16.658-21.311 42.019-25.86 71.411-.634 4.093-4.462 6.899-8.56 6.264-4.094-.634-6.898-4.466-6.265-8.559 4.91-31.709 15.052-59.39 28.558-77.944 21.841-30.005 53.091-46.53 87.994-46.53s66.153 16.525 87.994 46.531c20.041 27.532 32.006 73.964 32.006 124.205 0 33.77-6.738 64.749-18.973 87.23-14.066 25.847-34.353 39.51-58.667 39.51zm-199.86-.566c-4.143 0-7.5-3.358-7.5-7.5s3.357-7.5 7.5-7.5c18.129 0 37.5-13.924 37.5-53.003v-58.171c0-3.375.053-6.779.157-10.118.128-4.14 3.624-7.422 7.729-7.262 4.141.129 7.393 3.59 7.263 7.73-.099 3.184-.149 6.431-.149 9.65v58.171c0 50.193-28.281 68.003-52.5 68.003zm0-49.546c-4.143 0-7.5-3.358-7.5-7.5v-69.128c0-60.761 14.644-113.044 42.347-151.198 30.22-41.618 73.779-64.538 122.653-64.538 24.569 0 47.749 5.706 68.897 16.958 3.656 1.946 5.043 6.487 3.098 10.144-1.946 3.657-6.488 5.044-10.144 3.098-18.955-10.086-39.765-15.2-61.851-15.2-43.943 0-83.192 20.723-110.516 58.351-25.831 35.575-39.484 84.811-39.484 142.385v69.128c0 4.142-3.357 7.5-7.5 7.5z"/></g></svg>